<svg width="24" height="24" viewBox="0 0 24 24" fill="none" xmlns="http://www.w3.org/2000/svg">
<path fill-rule="evenodd" clip-rule="evenodd" d="M21.2729 14.7352C21.6859 14.7662 21.9949 15.1272 21.9639 15.5402L21.7739 18.0492C21.6169 20.1192 19.8699 21.7402 17.7949 21.7402H6.19488C4.11988 21.7402 2.37288 20.1192 2.21588 18.0492L2.02588 15.5402C1.99488 15.1272 2.30488 14.7662 2.71788 14.7352C3.13288 14.7202 3.49088 15.0132 3.52288 15.4272L3.71188 17.9352C3.80988 19.2272 4.89988 20.2402 6.19488 20.2402H17.7949C19.0899 20.2402 20.1809 19.2272 20.2779 17.9352L20.4679 15.4272C20.4999 15.0132 20.8669 14.7192 21.2729 14.7352ZM13.2851 2.00009C14.788 2.00009 16.0331 3.12636 16.2207 4.57912L18.1902 4.57999C20.2862 4.57999 21.9902 6.28899 21.9902 8.39099V11.83C21.9902 12.097 21.8482 12.343 21.6192 12.477C19.1509 13.9225 16.0241 14.7656 12.7447 14.8781L12.7451 16.6767C12.7451 17.0907 12.4091 17.4267 11.9951 17.4267C11.5811 17.4267 11.2451 17.0907 11.2451 16.6767L11.2444 14.8783C7.96836 14.7669 4.84134 13.9236 2.37118 12.477C2.14118 12.343 2.00018 12.097 2.00018 11.83V8.38099C2.00018 6.28499 3.70918 4.57999 5.81018 4.57999L7.76949 4.57912C7.95703 3.12636 9.20214 2.00009 10.7051 2.00009H13.2851ZM18.1902 6.07999H5.81018C4.53618 6.07999 3.50018 7.11199 3.50018 8.38099V11.393C5.8739 12.6827 8.86641 13.3896 11.9812 13.391L11.9951 13.3897L12.0062 13.3901L12.4823 13.3851C15.4281 13.315 18.2383 12.616 20.4902 11.393V8.39099C20.4902 7.11599 19.4592 6.07999 18.1902 6.07999ZM13.2851 3.50009H10.7051C10.0317 3.50009 9.46334 3.95836 9.29543 4.57937H14.6947C14.5268 3.95836 13.9584 3.50009 13.2851 3.50009Z" fill="black"/>
</svg>
