<svg width="88" height="22" viewBox="0 0 88 22" fill="none" xmlns="http://www.w3.org/2000/svg">
<path d="M45.47 9.07C45.1993 8.50067 44.8073 8.062 44.294 7.754C43.7807 7.43667 43.1833 7.278 42.502 7.278C41.8207 7.278 41.2047 7.43667 40.654 7.754C40.1127 8.062 39.6833 8.51 39.366 9.098C39.058 9.67667 38.904 10.3487 38.904 11.114C38.904 11.8793 39.058 12.5513 39.366 13.13C39.6833 13.7087 40.1127 14.1567 40.654 14.474C41.2047 14.782 41.8207 14.936 42.502 14.936C43.454 14.936 44.238 14.6513 44.854 14.082C45.47 13.5127 45.8293 12.7427 45.932 11.772H42.04V10.736H47.29V11.716C47.2153 12.5187 46.9633 13.256 46.534 13.928C46.1047 14.5907 45.54 15.118 44.84 15.51C44.14 15.8927 43.3607 16.084 42.502 16.084C41.5967 16.084 40.7707 15.874 40.024 15.454C39.2773 15.0247 38.6847 14.432 38.246 13.676C37.8167 12.92 37.602 12.066 37.602 11.114C37.602 10.162 37.8167 9.308 38.246 8.552C38.6847 7.78667 39.2773 7.194 40.024 6.774C40.7707 6.34467 41.5967 6.13 42.502 6.13C43.538 6.13 44.4527 6.38667 45.246 6.9C46.0487 7.41333 46.632 8.13667 46.996 9.07H45.47ZM52.3205 16.126C51.6018 16.126 50.9485 15.9627 50.3605 15.636C49.7818 15.3093 49.3245 14.8473 48.9885 14.25C48.6618 13.6433 48.4985 12.9433 48.4985 12.15C48.4985 11.366 48.6665 10.6753 49.0025 10.078C49.3478 9.47133 49.8145 9.00933 50.4025 8.692C50.9905 8.36533 51.6485 8.202 52.3765 8.202C53.1045 8.202 53.7625 8.36533 54.3505 8.692C54.9385 9.00933 55.4005 9.46667 55.7365 10.064C56.0818 10.6613 56.2545 11.3567 56.2545 12.15C56.2545 12.9433 56.0772 13.6433 55.7225 14.25C55.3772 14.8473 54.9058 15.3093 54.3085 15.636C53.7112 15.9627 53.0485 16.126 52.3205 16.126ZM52.3205 15.006C52.7778 15.006 53.2072 14.8987 53.6085 14.684C54.0098 14.4693 54.3318 14.1473 54.5745 13.718C54.8265 13.2887 54.9525 12.766 54.9525 12.15C54.9525 11.534 54.8312 11.0113 54.5885 10.582C54.3458 10.1527 54.0285 9.83533 53.6365 9.63C53.2445 9.41533 52.8198 9.308 52.3625 9.308C51.8958 9.308 51.4665 9.41533 51.0745 9.63C50.6918 9.83533 50.3838 10.1527 50.1505 10.582C49.9172 11.0113 49.8005 11.534 49.8005 12.15C49.8005 12.7753 49.9125 13.3027 50.1365 13.732C50.3698 14.1613 50.6778 14.4833 51.0605 14.698C51.4432 14.9033 51.8632 15.006 52.3205 15.006ZM61.2756 16.126C60.5569 16.126 59.9036 15.9627 59.3156 15.636C58.7369 15.3093 58.2796 14.8473 57.9436 14.25C57.6169 13.6433 57.4536 12.9433 57.4536 12.15C57.4536 11.366 57.6216 10.6753 57.9576 10.078C58.3029 9.47133 58.7696 9.00933 59.3576 8.692C59.9456 8.36533 60.6036 8.202 61.3316 8.202C62.0596 8.202 62.7176 8.36533 63.3056 8.692C63.8936 9.00933 64.3556 9.46667 64.6916 10.064C65.0369 10.6613 65.2096 11.3567 65.2096 12.15C65.2096 12.9433 65.0322 13.6433 64.6776 14.25C64.3322 14.8473 63.8609 15.3093 63.2636 15.636C62.6662 15.9627 62.0036 16.126 61.2756 16.126ZM61.2756 15.006C61.7329 15.006 62.1622 14.8987 62.5636 14.684C62.9649 14.4693 63.2869 14.1473 63.5296 13.718C63.7816 13.2887 63.9076 12.766 63.9076 12.15C63.9076 11.534 63.7862 11.0113 63.5436 10.582C63.3009 10.1527 62.9836 9.83533 62.5916 9.63C62.1996 9.41533 61.7749 9.308 61.3176 9.308C60.8509 9.308 60.4216 9.41533 60.0296 9.63C59.6469 9.83533 59.3389 10.1527 59.1056 10.582C58.8722 11.0113 58.7556 11.534 58.7556 12.15C58.7556 12.7753 58.8676 13.3027 59.0916 13.732C59.3249 14.1613 59.6329 14.4833 60.0156 14.698C60.3982 14.9033 60.8182 15.006 61.2756 15.006ZM70.0486 8.202C70.7113 8.202 71.29 8.34667 71.7846 8.636C72.2886 8.92533 72.662 9.28933 72.9046 9.728V8.328H74.1926V16.168C74.1926 16.868 74.0433 17.4887 73.7446 18.03C73.446 18.5807 73.0166 19.01 72.4566 19.318C71.906 19.626 71.262 19.78 70.5246 19.78C69.5166 19.78 68.6766 19.542 68.0046 19.066C67.3326 18.59 66.936 17.9413 66.8146 17.12H68.0746C68.2146 17.5867 68.504 17.96 68.9426 18.24C69.3813 18.5293 69.9086 18.674 70.5246 18.674C71.2246 18.674 71.794 18.4547 72.2326 18.016C72.6806 17.5773 72.9046 16.9613 72.9046 16.168V14.558C72.6526 15.006 72.2793 15.3793 71.7846 15.678C71.29 15.9767 70.7113 16.126 70.0486 16.126C69.3673 16.126 68.7466 15.958 68.1866 15.622C67.636 15.286 67.202 14.8147 66.8846 14.208C66.5673 13.6013 66.4086 12.9107 66.4086 12.136C66.4086 11.352 66.5673 10.666 66.8846 10.078C67.202 9.48067 67.636 9.01867 68.1866 8.692C68.7466 8.36533 69.3673 8.202 70.0486 8.202ZM72.9046 12.15C72.9046 11.5713 72.788 11.0673 72.5546 10.638C72.3213 10.2087 72.004 9.882 71.6026 9.658C71.2106 9.42467 70.7766 9.308 70.3006 9.308C69.8246 9.308 69.3906 9.42 68.9986 9.644C68.6066 9.868 68.294 10.1947 68.0606 10.624C67.8273 11.0533 67.7106 11.5573 67.7106 12.136C67.7106 12.724 67.8273 13.2373 68.0606 13.676C68.294 14.1053 68.6066 14.4367 68.9986 14.67C69.3906 14.894 69.8246 15.006 70.3006 15.006C70.7766 15.006 71.2106 14.894 71.6026 14.67C72.004 14.4367 72.3213 14.1053 72.5546 13.676C72.788 13.2373 72.9046 12.7287 72.9046 12.15ZM77.6196 5.64V16H76.3456V5.64H77.6196ZM86.7909 11.87C86.7909 12.1127 86.7769 12.3693 86.7489 12.64H80.6169C80.6636 13.396 80.9202 13.9887 81.3869 14.418C81.8629 14.838 82.4369 15.048 83.1089 15.048C83.6596 15.048 84.1169 14.922 84.4809 14.67C84.8542 14.4087 85.1156 14.0633 85.2649 13.634H86.6369C86.4316 14.3713 86.0209 14.9733 85.4049 15.44C84.7889 15.8973 84.0236 16.126 83.1089 16.126C82.3809 16.126 81.7276 15.9627 81.1489 15.636C80.5796 15.3093 80.1316 14.8473 79.8049 14.25C79.4782 13.6433 79.3149 12.9433 79.3149 12.15C79.3149 11.3567 79.4736 10.6613 79.7909 10.064C80.1082 9.46667 80.5516 9.00933 81.1209 8.692C81.6996 8.36533 82.3622 8.202 83.1089 8.202C83.8369 8.202 84.4809 8.36067 85.0409 8.678C85.6009 8.99533 86.0302 9.434 86.3289 9.994C86.6369 10.5447 86.7909 11.17 86.7909 11.87ZM85.4749 11.604C85.4749 11.1187 85.3676 10.7033 85.1529 10.358C84.9382 10.0033 84.6442 9.73733 84.2709 9.56C83.9069 9.37333 83.5009 9.28 83.0529 9.28C82.4089 9.28 81.8582 9.48533 81.4009 9.896C80.9529 10.3067 80.6962 10.876 80.6309 11.604H85.4749Z" fill="#3E3E3E"/>
<path d="M22 11.2444C22 10.34 21.9251 9.68001 21.7631 8.99557H11.2245V13.0777H17.4104C17.2857 14.0922 16.6123 15.62 15.1156 16.6466L15.0946 16.7833L18.4267 19.313L18.6576 19.3356C20.7778 17.4167 22 14.5933 22 11.2444Z" fill="#4285F4"/>
<path d="M11.2244 22C14.255 22 16.7992 21.0222 18.6575 19.3356L15.1155 16.6466C14.1677 17.2944 12.8956 17.7466 11.2244 17.7466C8.25617 17.7466 5.7369 15.8278 4.83886 13.1756L4.70722 13.1865L1.24245 15.8143L1.19714 15.9377C3.04293 19.531 6.83434 22 11.2244 22Z" fill="#34A853"/>
<path d="M4.83897 13.1756C4.60201 12.4911 4.46487 11.7577 4.46487 11C4.46487 10.2422 4.60201 9.50886 4.8265 8.82443L4.82022 8.67866L1.31203 6.00867L1.19725 6.06217C0.436514 7.5533 0 9.22778 0 11C0 12.7722 0.436514 14.4466 1.19725 15.9377L4.83897 13.1756Z" fill="#FBBC05"/>
<path d="M11.2244 4.2533C13.3321 4.2533 14.7538 5.14552 15.5645 5.89113L18.7323 2.86C16.7868 1.08778 14.255 0 11.2244 0C6.83434 0 3.04293 2.46887 1.19714 6.06217L4.82639 8.82443C5.7369 6.17221 8.25617 4.2533 11.2244 4.2533Z" fill="#EB4335"/>
</svg>
