<svg width="8" height="8" viewBox="0 0 8 8" fill="none" xmlns="http://www.w3.org/2000/svg">
<path d="M5.97286 4.77325C5.88652 4.85692 5.84686 4.97792 5.86652 5.09659L6.16286 6.73659C6.18786 6.87559 6.12919 7.01625 6.01286 7.09659C5.89886 7.17992 5.74719 7.18992 5.62286 7.12325L4.14652 6.35325C4.09519 6.32592 4.03819 6.31125 3.97986 6.30959H3.88952C3.85819 6.31425 3.82752 6.32425 3.79952 6.33959L2.32286 7.11325C2.24986 7.14992 2.16719 7.16292 2.08619 7.14992C1.88886 7.11259 1.75719 6.92459 1.78952 6.72625L2.08619 5.08625C2.10586 4.96659 2.06619 4.84492 1.97986 4.75992L0.77619 3.59325C0.675524 3.49559 0.640524 3.34892 0.686524 3.21659C0.73119 3.08459 0.84519 2.98825 0.982857 2.96659L2.63952 2.72625C2.76552 2.71325 2.87619 2.63659 2.93286 2.52325L3.66286 1.02659C3.68019 0.993252 3.70252 0.962585 3.72952 0.936585L3.75952 0.913252C3.77519 0.895919 3.79319 0.881585 3.81319 0.869919L3.84952 0.856585L3.90619 0.833252H4.04652C4.17186 0.846252 4.28219 0.921252 4.33986 1.03325L5.07952 2.52325C5.13286 2.63225 5.23652 2.70792 5.35619 2.72625L7.01286 2.96659C7.15286 2.98659 7.26986 3.08325 7.31619 3.21659C7.35986 3.35025 7.32219 3.49692 7.21952 3.59325L5.97286 4.77325Z" fill="#FFB45B"/>
</svg>
