<svg width="8" height="8" viewBox="0 0 8 8" fill="none" xmlns="http://www.w3.org/2000/svg">
<path d="M5.02333 0.666748C5.92666 0.666748 6.65666 1.02341 6.66666 1.93008V6.99008C6.66666 7.04675 6.65333 7.10342 6.62666 7.15342C6.58333 7.23342 6.50999 7.29342 6.41999 7.32008C6.33333 7.34675 6.23666 7.33342 6.15666 7.28675L3.99666 6.20675L1.83333 7.28675C1.78366 7.31308 1.72666 7.33008 1.66999 7.33008C1.48333 7.33008 1.33333 7.17675 1.33333 6.99008V1.93008C1.33333 1.02341 2.06666 0.666748 2.96666 0.666748H5.02333ZM5.24999 2.68008H2.73999C2.59666 2.68008 2.47999 2.79675 2.47999 2.94341C2.47999 3.08975 2.59666 3.20675 2.73999 3.20675H5.24999C5.39333 3.20675 5.50999 3.08975 5.50999 2.94341C5.50999 2.79675 5.39333 2.68008 5.24999 2.68008Z" fill="#07AEAF"/>
</svg>
