<svg width="10" height="10" viewBox="0 0 10 10" fill="none" xmlns="http://www.w3.org/2000/svg">
<path d="M3.55482 1.22382C4.46518 0.69486 5.58416 0.704106 6.48597 1.24804C7.37892 1.80304 7.92163 2.79357 7.91661 3.8591C7.89579 4.91764 7.31385 5.91266 6.58643 6.68187C6.16658 7.12783 5.6969 7.52218 5.187 7.85685C5.13448 7.88721 5.07696 7.90754 5.01726 7.91683C4.95981 7.91438 4.90386 7.89741 4.85446 7.86743C4.07599 7.36457 3.39304 6.72268 2.83845 5.97265C2.37439 5.34656 2.11074 4.59017 2.08331 3.80617L2.08539 3.69212C2.12328 2.66877 2.67698 1.73388 3.55482 1.22382ZM5.37801 2.93132C5.00793 2.77401 4.58125 2.85948 4.29719 3.14781C4.01314 3.43614 3.92775 3.87046 4.08088 4.24799C4.23401 4.62551 4.59547 4.87176 4.99648 4.87177C5.25919 4.87365 5.51172 4.76842 5.69782 4.57953C5.88391 4.39063 5.9881 4.13376 5.98717 3.86615C5.98857 3.45768 5.74809 3.08863 5.37801 2.93132Z" fill="white"/>
<path opacity="0.4" d="M4.99996 9.16683C6.15055 9.16683 7.08329 8.98028 7.08329 8.75016C7.08329 8.52004 6.15055 8.3335 4.99996 8.3335C3.84937 8.3335 2.91663 8.52004 2.91663 8.75016C2.91663 8.98028 3.84937 9.16683 4.99996 9.16683Z" fill="white"/>
</svg>
