<svg width="16" height="17" viewBox="0 0 16 17" fill="none" xmlns="http://www.w3.org/2000/svg">
<path d="M15.875 6.0659L8 0.338623L0.125 6.0659V16.7499H8.375V8.12494C8.375 8.02548 8.41451 7.9301 8.48483 7.85977C8.55516 7.78944 8.65054 7.74994 8.75 7.74994H14C14.0995 7.74994 14.1948 7.78944 14.2652 7.85977C14.3355 7.9301 14.375 8.02548 14.375 8.12494V16.7499H15.875V6.0659ZM6.875 13.3749C6.875 13.4744 6.83549 13.5698 6.76517 13.6401C6.69484 13.7104 6.59946 13.7499 6.5 13.7499H2C1.90054 13.7499 1.80516 13.7104 1.73484 13.6401C1.66451 13.5698 1.625 13.4744 1.625 13.3749V8.12494C1.625 8.02548 1.66451 7.9301 1.73484 7.85977C1.80516 7.78944 1.90054 7.74994 2 7.74994H6.5C6.59946 7.74994 6.69484 7.78944 6.76517 7.85977C6.83549 7.9301 6.875 8.02548 6.875 8.12494V13.3749Z" fill="#F5A623"/>
</svg>
