<?xml version="1.0" encoding="iso-8859-1"?>
<!-- Uploaded to: SVG Repo, www.svgrepo.com, Generator: SVG Repo Mixer Tools -->
<!DOCTYPE svg PUBLIC "-//W3C//DTD SVG 1.1//EN" "http://www.w3.org/Graphics/SVG/1.1/DTD/svg11.dtd">
<svg fill="#000000" height="800px" width="800px" version="1.1" id="Capa_1" xmlns="http://www.w3.org/2000/svg" xmlns:xlink="http://www.w3.org/1999/xlink" 
	 viewBox="0 0 279.716 279.716" xml:space="preserve">
<g>
	<path d="M12.279,125.958l54.67,13.448l-2.1,8.536c-0.482,1.961,0.055,4.034,1.429,5.515c1.145,1.233,2.743,1.918,4.397,1.918
		c0.331,0,0.664-0.027,0.996-0.083l35.538-5.982l163.792,40.292c0.474,0.117,0.954,0.174,1.434,0.174
		c1.086,0,2.162-0.295,3.106-0.867c1.361-0.824,2.34-2.155,2.72-3.7c6.592-26.798-9.848-53.963-36.645-60.555L61.974,80.463
		l-27.379-30.93c-1.479-1.67-3.767-2.384-5.929-1.849c-2.167,0.534-3.857,2.226-4.391,4.393L7.887,118.699
		c-0.38,1.545-0.131,3.178,0.693,4.54C9.403,124.6,10.734,125.578,12.279,125.958z M54.229,89.819
		c0.809,0.913,1.876,1.558,3.06,1.849l181.462,44.638c18.391,4.524,30.364,21.793,28.833,40.097L137.036,144.29l21.157-3.561
		c2.806-0.473,4.894-2.851,5-5.694c0.105-2.843-1.8-5.37-4.563-6.049l-78.205-19.238c-3.219-0.794-6.469,1.176-7.26,4.393
		l-3.349,13.614l-48.843-12.015l12.222-49.683L54.229,89.819z M83.384,122.833l44.215,10.876l-48.916,8.234L83.384,122.833z"/>
	<path d="M272.436,220.207H6c-3.313,0-6,2.687-6,6s2.687,6,6,6h266.436c3.313,0,6-2.687,6-6S275.749,220.207,272.436,220.207z"/>
</g>
</svg>