<svg width="81" height="60" viewBox="0 0 81 60" fill="none" xmlns="http://www.w3.org/2000/svg">
<path d="M57.9333 44.9871C57.9333 44.9871 51.4128 57.8275 36.9361 53.6327C31.8115 52.1458 27.3648 48.7252 24.7393 42.1689C24.1045 40.5849 22.8815 39.2924 21.3062 38.5571C20.2195 38.0486 18.9466 37.6145 17.7635 37.6145C14.8954 37.6145 12.6787 39.0139 12.157 40.41C11.6352 41.8093 14.2441 52.6123 22.4595 56.6808C25.271 58.0704 31.4592 62.0191 44.7627 58.7151C48.661 57.7465 55.587 53.8853 57.9333 44.9871Z" fill="#07AEAF"/>
<path d="M34.2541 26.1052V21.3986L27.5874 16.4684V13.647C27.5874 12.9182 26.9826 12.3286 26.2348 12.3286H25.0583C24.4236 12.3286 23.9084 13.1611 23.9084 13.7798L20.1165 11.2046C20.1165 11.2046 20.1165 6.26798 20.1165 4.70017C20.1165 3.13237 18.8536 1.34429 17.2417 0C17.2417 0 14.4833 2.01807 14.4833 4.59328C14.4833 7.1685 14.4833 10.9779 14.4833 10.9779L11.15 13.6665V13.4268C11.15 12.753 10.5916 12.2088 9.90037 12.2088H8.42811C7.70693 12.2088 7.12534 12.7789 7.12534 13.4786V16.0182L0 21.5087V26.7758L14.4833 19.4939L14.829 29.6879L10.6913 33.2737V36.7462L17.1287 33.7434V36.0757H17.7037V33.724L23.7954 36.7494V33.3871L19.7708 30.0247L20.3458 19.4939L34.2541 26.1052Z" fill="#07AEAF"/>
<path d="M59.5418 36.5232V44.6408H70.6685C69.1829 48.5247 65.5505 50.9023 60.0204 50.9023C58.9004 50.9023 57.8435 50.8019 56.8465 50.6172C54.9389 53.8954 52.3533 56.2633 49.7411 57.8214C52.7388 59.1818 56.1685 59.9495 59.9007 59.9495C71.5625 59.9495 80.4259 52.4118 80.4259 40.0022V36.5232H59.5418Z" fill="#2B3D5F"/>
<path d="M46.9295 38.9585C46.9295 31.8256 52.1639 26.7821 59.1862 26.7821C63.8854 26.7821 67.6342 28.8681 69.3591 31.5373L77.4515 27.0153C73.942 21.5636 67.2188 17.738 59.246 17.738C46.9893 17.738 37.4113 27.1319 37.4113 38.9034C37.4113 44.4976 39.5815 49.567 43.2804 53.3311C47.561 53.1432 50.7714 51.2903 52.998 49.3241C49.1396 47.3125 46.9295 43.5453 46.9295 38.9585Z" fill="#07AEAF"/>
</svg>
