<svg width="88" height="88" viewBox="0 0 88 88" fill="none" xmlns="http://www.w3.org/2000/svg">
<circle cx="44" cy="44" r="42" fill="white" stroke="white" stroke-width="4"/>
<path d="M30.5177 47.4971C30.5177 47.4971 28.9962 50.4932 25.6184 49.5144C24.4226 49.1675 23.385 48.3693 22.7724 46.8395C22.6243 46.4699 22.339 46.1684 21.9714 45.9968C21.7178 45.8781 21.4208 45.7769 21.1447 45.7769C20.4755 45.7769 19.9583 46.1034 19.8366 46.4291C19.7148 46.7556 20.3235 49.2763 22.2405 50.2257C22.8965 50.5499 24.3404 51.4713 27.4446 50.7003C28.3542 50.4743 29.9702 49.5734 30.5177 47.4971Z" fill="#07AEAF"/>
<path d="M24.9926 43.0912V41.993L23.4371 40.8426V40.1843C23.4371 40.0142 23.2959 39.8767 23.1214 39.8767H22.8469C22.6988 39.8767 22.5786 40.0709 22.5786 40.2153L21.6938 39.6144C21.6938 39.6144 21.6938 38.4625 21.6938 38.0967C21.6938 37.7309 21.3992 37.3137 21.0231 37C21.0231 37 20.3794 37.4709 20.3794 38.0718C20.3794 38.6726 20.3794 39.5615 20.3794 39.5615L19.6017 40.1888V40.1329C19.6017 39.9757 19.4714 39.8487 19.3101 39.8487H18.9666C18.7983 39.8487 18.6626 39.9817 18.6626 40.145V40.7376L17 42.0187V43.2477L20.3794 41.5486L20.4601 43.9272L19.4946 44.7639V45.5741L20.9967 44.8735V45.4176H21.1309V44.8689L22.5523 45.5749V44.7903L21.6132 44.0058L21.7473 41.5486L24.9926 43.0912Z" fill="#07AEAF"/>
<path d="M30.893 45.522V47.4161H33.4892C33.1426 48.3223 32.295 48.8771 31.0047 48.8771C30.7434 48.8771 30.4968 48.8537 30.2641 48.8106C29.819 49.5755 29.2157 50.128 28.6062 50.4915C29.3057 50.809 30.1059 50.9881 30.9768 50.9881C33.6978 50.9881 35.766 49.2293 35.766 46.3337V45.522H30.893Z" fill="#2B3D5F"/>
<path d="M27.9502 46.0901C27.9502 44.4258 29.1715 43.2489 30.81 43.2489C31.9065 43.2489 32.7812 43.7357 33.1837 44.3585L35.0719 43.3034C34.2531 42.0313 32.6843 41.1387 30.824 41.1387C27.9641 41.1387 25.7292 43.3306 25.7292 46.0772C25.7292 47.3826 26.2356 48.5654 27.0987 49.4437C28.0975 49.3999 28.8466 48.9675 29.3661 48.5087C28.4658 48.0394 27.9502 47.1603 27.9502 46.0901Z" fill="#07AEAF"/>
<path d="M36.599 47.4168C36.599 45.401 38.2368 43.8447 40.2778 43.8447C42.3188 43.8447 43.9565 45.401 43.9565 47.4168C43.9565 49.4333 42.3188 50.9888 40.2778 50.9888C38.2375 50.9888 36.599 49.4326 36.599 47.4168ZM41.8744 47.4168C41.8744 46.4561 41.1804 45.8205 40.2778 45.8205C39.3751 45.8205 38.6811 46.4561 38.6811 47.4168C38.6811 48.3774 39.3751 49.0131 40.2778 49.0131C41.1804 49.0131 41.8744 48.3774 41.8744 47.4168Z" fill="#2B3D5F"/>
<path d="M51.731 43.4115H49.2325V50.7997H47.0116V43.4115H44.5123V41.3276H51.731V43.4115Z" fill="#2B3D5F"/>
<path d="M51.0371 47.4168C51.0371 45.401 52.6749 43.8447 54.7159 43.8447C56.7569 43.8447 58.3946 45.401 58.3946 47.4168C58.3946 49.4333 56.7569 50.9888 54.7159 50.9888C52.6749 50.9888 51.0371 49.4326 51.0371 47.4168ZM56.3125 47.4168C56.3125 46.4561 55.6185 45.8205 54.7159 45.8205C53.8132 45.8205 53.1192 46.4561 53.1192 47.4168C53.1192 48.3774 53.8132 49.0131 54.7159 49.0131C55.6185 49.0131 56.3125 48.3774 56.3125 47.4168Z" fill="#2B3D5F"/>
<path d="M66.1414 44.0337V50.7991H64.0593V50.1634C63.6848 50.6638 62.9907 50.9888 62.0741 50.9888C60.6721 50.9888 59.4779 50.0145 59.4779 48.1877V44.0337H61.56V47.8899C61.56 48.7289 62.1013 49.1212 62.7674 49.1212C63.5312 49.1212 64.0585 48.6881 64.0585 47.7274V44.0337H66.1414Z" fill="#2B3D5F"/>
<path d="M71.8333 43.8984V46.1984C70.9725 46.0631 69.7512 46.401 69.7512 47.7411V50.7991H67.6691V44.0337H69.7512V45.2378C70.0288 44.3315 70.9586 43.8984 71.8333 43.8984Z" fill="#2B3D5F"/>
</svg>
