<svg width="24" height="24" viewBox="0 0 24 24" fill="none" xmlns="http://www.w3.org/2000/svg">
<path d="M22.0828 11.3955C21.2589 9.65972 20.2785 8.24409 19.1414 7.14862L17.9489 8.34112C18.9213 9.27042 19.7684 10.4861 20.5008 12.0002C18.5508 16.0361 15.7828 17.9533 12 17.9533C10.8645 17.9533 9.81869 17.7785 8.86244 17.4288L7.57033 18.7209C8.89845 19.3342 10.375 19.6408 12 19.6408C16.5047 19.6408 19.8656 17.2947 22.0828 12.6025C22.172 12.4138 22.2182 12.2077 22.2182 11.999C22.2182 11.7903 22.172 11.5842 22.0828 11.3955ZM20.5929 3.8805L19.5938 2.88019C19.5764 2.86275 19.5557 2.84892 19.5329 2.83949C19.5101 2.83005 19.4858 2.8252 19.4611 2.8252C19.4365 2.8252 19.4121 2.83005 19.3893 2.83949C19.3665 2.84892 19.3459 2.86275 19.3285 2.88019L16.7651 5.44237C15.3518 4.7205 13.7635 4.35956 12 4.35956C7.49533 4.35956 4.13439 6.70566 1.9172 11.3978C1.82808 11.5866 1.78186 11.7927 1.78186 12.0014C1.78186 12.2101 1.82808 12.4162 1.9172 12.6049C2.80298 14.4705 3.86939 15.9659 5.11642 17.091L2.63626 19.5705C2.60113 19.6057 2.58139 19.6533 2.58139 19.703C2.58139 19.7527 2.60113 19.8004 2.63626 19.8356L3.63681 20.8361C3.67197 20.8713 3.71964 20.891 3.76935 20.891C3.81906 20.891 3.86673 20.8713 3.90189 20.8361L20.5929 4.14581C20.6103 4.1284 20.6242 4.10772 20.6336 4.08496C20.643 4.06219 20.6479 4.0378 20.6479 4.01316C20.6479 3.98851 20.643 3.96412 20.6336 3.94135C20.6242 3.91859 20.6103 3.89791 20.5929 3.8805ZM3.49923 12.0002C5.45158 7.96425 8.21954 6.04706 12 6.04706C13.2783 6.04706 14.4406 6.26644 15.495 6.71245L13.8474 8.36011C13.067 7.94377 12.1736 7.78926 11.2988 7.91936C10.424 8.04946 9.61413 8.45728 8.98874 9.08267C8.36336 9.70805 7.95553 10.5179 7.82543 11.3927C7.69533 12.2675 7.84985 13.161 8.26619 13.9413L6.31103 15.8964C5.22892 14.9414 4.29611 13.6474 3.49923 12.0002ZM9.28126 12.0002C9.28167 11.5869 9.37957 11.1795 9.56699 10.8112C9.75442 10.4428 10.0261 10.1239 10.3599 9.88029C10.6938 9.63666 11.0804 9.47522 11.4883 9.40908C11.8963 9.34294 12.3141 9.37397 12.7078 9.49964L9.40572 12.8018C9.32295 12.5426 9.28097 12.2722 9.28126 12.0002Z" fill="#9295A3"/>
<path d="M11.9063 14.6247C11.8252 14.6247 11.7453 14.6209 11.6661 14.6137L10.4281 15.8516C11.1727 16.1368 11.9839 16.2001 12.7638 16.0341C13.5436 15.868 14.2586 15.4796 14.8224 14.9158C15.3862 14.352 15.7746 13.637 15.9407 12.8571C16.1068 12.0773 16.0434 11.2661 15.7582 10.5215L14.5203 11.7595C14.5275 11.8387 14.5313 11.9186 14.5313 11.9997C14.5315 12.3445 14.4637 12.6859 14.3319 13.0044C14.2 13.323 14.0067 13.6125 13.7629 13.8562C13.5191 14.1 13.2296 14.2934 12.9111 14.4252C12.5925 14.5571 12.2511 14.6249 11.9063 14.6247Z" fill="#9295A3"/>
</svg>
