<svg width="24" height="24" viewBox="0 0 24 24" fill="none" xmlns="http://www.w3.org/2000/svg">
<path d="M21.0356 12.259C20.9517 12.0943 20.9517 11.9055 21.0356 11.7409L21.813 10.2149C22.2458 9.36529 21.9029 8.3526 21.0323 7.90937L19.4686 7.11328C19.2999 7.02742 19.1843 6.87461 19.1512 6.69419L18.8454 5.0212C18.6751 4.08972 17.7772 3.46379 16.8015 3.59625L15.0489 3.83414C14.8597 3.85977 14.6726 3.80141 14.5354 3.67402L13.2632 2.4931C12.5548 1.83553 11.4451 1.83549 10.7367 2.4931L9.46448 3.67414C9.32721 3.80156 9.14015 3.8598 8.95102 3.83426L7.19836 3.59637C6.22236 3.46383 5.32472 4.08984 5.15444 5.02131L4.84863 6.69422C4.81561 6.87469 4.69996 7.02746 4.5313 7.11336L2.96766 7.90944C2.09705 8.35264 1.75412 9.3654 2.18694 10.215L2.96428 11.741C3.04814 11.9056 3.04814 12.0944 2.96428 12.259L2.1869 13.785C1.75408 14.6346 2.09701 15.6473 2.96762 16.0905L4.53126 16.8866C4.69996 16.9725 4.81561 17.1253 4.84863 17.3057L5.15444 18.9787C5.30946 19.8267 6.06722 20.4213 6.93811 20.4213C7.02388 20.4213 7.11092 20.4155 7.1984 20.4036L8.95106 20.1657C9.14007 20.14 9.32725 20.1984 9.46452 20.3258L10.7367 21.5067C11.091 21.8356 11.5454 21.9999 11.9999 21.9999C12.4544 21.9999 12.9091 21.8355 13.2631 21.5067L14.5354 20.3258C14.6727 20.1984 14.8598 20.1402 15.0489 20.1657L16.8015 20.4036C17.7776 20.5361 18.6751 19.9101 18.8454 18.9787L19.1513 17.3057C19.1843 17.1253 19.3 16.9725 19.4686 16.8866L21.0323 16.0905C21.9029 15.6473 22.2458 14.6346 21.813 13.7849L21.0356 12.259ZM20.4688 15.0715L18.9052 15.8676C18.4066 16.1215 18.0647 16.5729 17.9672 17.1064L17.6614 18.7793C17.6038 19.0945 17.3002 19.3061 16.9699 19.2614L15.2172 19.0235C14.6583 18.9476 14.1052 19.1202 13.6995 19.4967L12.4273 20.6776C12.1877 20.9 11.8122 20.9 11.5725 20.6776L10.3003 19.4967C9.95747 19.1784 9.50926 19.006 9.04135 19.006C8.95562 19.006 8.86919 19.0117 8.78264 19.0235L7.02999 19.2614C6.7 19.3061 6.39611 19.0944 6.33846 18.7793L6.03261 17.1063C5.93508 16.5729 5.5932 16.1213 5.09463 15.8676L3.53099 15.0715C3.23642 14.9215 3.1204 14.5789 3.26683 14.2914L4.04421 12.7655C4.29205 12.2789 4.29205 11.7209 4.04421 11.2343L3.26683 9.70837C3.1204 9.42091 3.23642 9.0783 3.53099 8.92834L5.09463 8.13226C5.59316 7.87839 5.93508 7.42691 6.03257 6.89348L6.33838 5.22053C6.39603 4.90538 6.69964 4.69366 7.02991 4.73843L8.78256 4.97631C9.3413 5.05221 9.89458 4.87968 10.3002 4.50316L11.5725 3.32223C11.8121 3.09981 12.1876 3.09981 12.4273 3.32223L13.6995 4.50316C14.1051 4.87971 14.6583 5.05221 15.2171 4.97631L16.9698 4.73843C17.2998 4.69362 17.6037 4.90538 17.6613 5.22053L17.9671 6.89352C18.0647 7.42695 18.4065 7.87847 18.9051 8.13226L20.4688 8.92834C20.7633 9.0783 20.8793 9.42091 20.7329 9.70837L19.9555 11.2343C19.7077 11.7208 19.7077 12.2789 19.9555 12.7654L20.7329 14.2914C20.8794 14.5789 20.7634 14.9216 20.4688 15.0715Z" fill="black"/>
<path d="M16.3918 7.78568C16.1571 7.56045 15.7765 7.56045 15.5417 7.78568L7.60793 15.3985C7.3732 15.6237 7.3732 15.9889 7.60793 16.2141C7.7253 16.3268 7.87914 16.3831 8.03294 16.3831C8.18674 16.3831 8.34062 16.3268 8.45794 16.2141L16.3917 8.60138C16.6265 8.37611 16.6265 8.01095 16.3918 7.78568Z" fill="black"/>
<path d="M9.59556 6.80914C8.38031 6.80914 7.3916 7.75784 7.3916 8.92392C7.3916 10.09 8.38031 11.0387 9.59556 11.0387C10.8108 11.0387 11.7995 10.09 11.7995 8.92392C11.7995 7.75784 10.8108 6.80914 9.59556 6.80914ZM9.59556 9.88516C9.04317 9.88516 8.59379 9.45395 8.59379 8.92388C8.59379 8.39385 9.04317 7.96264 9.59556 7.96264C10.1479 7.96264 10.5974 8.39385 10.5974 8.92388C10.5973 9.45395 10.1479 9.88516 9.59556 9.88516Z" fill="black"/>
<path d="M14.4042 12.9612C13.1889 12.9612 12.2002 13.9099 12.2002 15.076C12.2002 16.242 13.1889 17.1907 14.4042 17.1907C15.6194 17.1907 16.6081 16.242 16.6081 15.076C16.6081 13.9099 15.6194 12.9612 14.4042 12.9612ZM14.4042 16.0372C13.8518 16.0372 13.4023 15.606 13.4023 15.076C13.4023 14.5459 13.8517 14.1147 14.4042 14.1147C14.9565 14.1147 15.4059 14.5459 15.4059 15.076C15.4059 15.606 14.9565 16.0372 14.4042 16.0372Z" fill="black"/>
</svg>
